<svg width="60" height="60" viewBox="0 0 60 60" fill="none" xmlns="http://www.w3.org/2000/svg">
<g clip-path="url(#clip0_31_16)">
<path d="M30 60C46.5685 60 60 46.5685 60 30C60 13.4315 46.5685 0 30 0C13.4315 0 0 13.4315 0 30C0 46.5685 13.4315 60 30 60Z" fill="url(#paint0_linear_31_16)"/>
<path d="M30 55.0001C16.2151 55.0001 5 43.785 5 30.0001C5 16.2152 16.2151 5.00006 30 5.00006C43.7855 5.00006 55 16.2152 55 30.0001C55 43.785 43.7855 55.0001 30 55.0001Z" fill="url(#paint1_linear_31_16)"/>
<path opacity="0.3" d="M42.0083 30.9375L19.8668 45V16.875L42.0083 30.9375Z" fill="black"/>
<path d="M41.0708 30L18.9293 44.0625V15.9375L41.0708 30Z" fill="white"/>
</g>
<defs>
<linearGradient id="paint0_linear_31_16" x1="4.45313e-07" y1="30" x2="60" y2="30" gradientUnits="userSpaceOnUse">
<stop stop-color="#33B49D"/>
<stop offset="1" stop-color="#00A185"/>
</linearGradient>
<linearGradient id="paint1_linear_31_16" x1="5" y1="30.0001" x2="55" y2="30.0001" gradientUnits="userSpaceOnUse">
<stop stop-color="#00A185"/>
<stop offset="1" stop-color="#33B49D"/>
</linearGradient>
<clipPath id="clip0_31_16">
<rect width="60" height="60" fill="white"/>
</clipPath>
</defs>
</svg>
