<svg width="40" height="40" viewBox="0 0 40 40" fill="none" xmlns="http://www.w3.org/2000/svg">
<g clip-path="url(#clip0_8_8)">
<path d="M20 15C18.6739 15 17.4021 15.5268 16.4645 16.4645C15.5268 17.4021 15 18.6739 15 20C15 21.3261 15.5268 22.5978 16.4645 23.5355C17.4021 24.4732 18.6739 25 20 25C21.3261 25 22.5978 24.4732 23.5355 23.5355C24.4732 22.5978 25 21.3261 25 20C25 18.6739 24.4732 17.4021 23.5355 16.4645C22.5978 15.5268 21.3261 15 20 15ZM20 11.6667C22.2101 11.6667 24.3297 12.5446 25.8926 14.1074C27.4554 15.6702 28.3333 17.7899 28.3333 20C28.3333 22.2101 27.4554 24.3297 25.8926 25.8926C24.3297 27.4554 22.2101 28.3333 20 28.3333C17.7899 28.3333 15.6702 27.4554 14.1074 25.8926C12.5446 24.3297 11.6667 22.2101 11.6667 20C11.6667 17.7899 12.5446 15.6702 14.1074 14.1074C15.6702 12.5446 17.7899 11.6667 20 11.6667ZM30.8333 11.25C30.8333 11.8025 30.6138 12.3324 30.2231 12.7231C29.8324 13.1138 29.3025 13.3333 28.75 13.3333C28.1975 13.3333 27.6676 13.1138 27.2769 12.7231C26.8862 12.3324 26.6667 11.8025 26.6667 11.25C26.6667 10.6975 26.8862 10.1676 27.2769 9.77686C27.6676 9.38615 28.1975 9.16666 28.75 9.16666C29.3025 9.16666 29.8324 9.38615 30.2231 9.77686C30.6138 10.1676 30.8333 10.6975 30.8333 11.25ZM20 6.66666C15.8767 6.66666 15.2033 6.67833 13.285 6.76333C11.9783 6.825 11.1017 6.99999 10.2883 7.31666C9.56499 7.59666 9.04333 7.93166 8.48833 8.48833C7.96667 8.99233 7.56558 9.60763 7.31499 10.2883C6.99833 11.105 6.82333 11.98 6.76333 13.285C6.67666 15.125 6.66666 15.7683 6.66666 20C6.66666 24.1233 6.67833 24.7967 6.76333 26.715C6.825 28.02 6.99999 28.8983 7.31499 29.71C7.59833 30.435 7.93166 30.9567 8.48499 31.51C9.04666 32.07 9.56833 32.405 10.285 32.6817C11.1083 33 11.985 33.1767 13.285 33.2367C15.125 33.3233 15.7683 33.3333 20 33.3333C24.1233 33.3333 24.7967 33.3217 26.715 33.2367C28.0183 33.175 28.8967 33 29.71 32.685C30.4317 32.4033 30.9567 32.0683 31.51 31.515C32.0717 30.9533 32.4067 30.4317 32.6833 29.715C33 28.8933 33.1767 28.015 33.2367 26.715C33.3233 24.875 33.3333 24.2317 33.3333 20C33.3333 15.8767 33.3217 15.2033 33.2367 13.285C33.175 11.9817 33 11.1017 32.6833 10.2883C32.4321 9.60833 32.0318 8.99326 31.5117 8.48833C31.0079 7.9664 30.3925 7.56527 29.7117 7.31499C28.895 6.99833 28.0183 6.82333 26.715 6.76333C24.875 6.67666 24.2317 6.66666 20 6.66666ZM20 3.33333C24.5283 3.33333 25.0933 3.34999 26.87 3.43333C28.645 3.51666 29.8533 3.795 30.9167 4.20833C32.0167 4.63166 32.9433 5.20499 33.87 6.12999C34.7175 6.96315 35.3732 7.97098 35.7917 9.08333C36.2033 10.145 36.4833 11.355 36.5667 13.13C36.645 14.9067 36.6667 15.4717 36.6667 20C36.6667 24.5283 36.65 25.0933 36.5667 26.87C36.4833 28.645 36.2033 29.8533 35.7917 30.9167C35.3745 32.0296 34.7185 33.0377 33.87 33.87C33.0366 34.7172 32.0288 35.3729 30.9167 35.7917C29.855 36.2033 28.645 36.4833 26.87 36.5667C25.0933 36.645 24.5283 36.6667 20 36.6667C15.4717 36.6667 14.9067 36.65 13.13 36.5667C11.355 36.4833 10.1467 36.2033 9.08333 35.7917C7.97054 35.3741 6.96254 34.7182 6.12999 33.87C5.28234 33.037 4.62655 32.0291 4.20833 30.9167C3.795 29.855 3.51666 28.645 3.43333 26.87C3.35499 25.0933 3.33333 24.5283 3.33333 20C3.33333 15.4717 3.34999 14.9067 3.43333 13.13C3.51666 11.3533 3.795 10.1467 4.20833 9.08333C4.62539 7.97029 5.28133 6.9622 6.12999 6.12999C6.96278 5.28205 7.97071 4.62621 9.08333 4.20833C10.1467 3.795 11.3533 3.51666 13.13 3.43333C14.9067 3.35499 15.4717 3.33333 20 3.33333Z" fill="black"/>
</g>
<defs>
<clipPath id="clip0_8_8">
<rect width="40" height="40" fill="white"/>
</clipPath>
</defs>
</svg>
