<svg width="40" height="40" viewBox="0 0 40 40" fill="none" xmlns="http://www.w3.org/2000/svg">
<path d="M13.3333 31.885L16.2067 29.97C16.3932 29.8459 16.6028 29.7607 16.823 29.7195C17.0433 29.6782 17.2695 29.6818 17.4883 29.73C20.0755 30.2998 22.7797 29.9721 25.1559 28.8007C27.5321 27.6294 29.4389 25.6842 30.5626 23.2852C31.6864 20.8861 31.9602 18.176 31.3389 15.6006C30.7177 13.0253 29.2385 10.738 27.1446 9.11511C25.0506 7.4922 22.4667 6.63026 19.8178 6.67108C17.1689 6.7119 14.6128 7.65304 12.5698 9.3397C10.5269 11.0264 9.11885 13.3581 8.57728 15.9514C8.0357 18.5446 8.39285 21.245 9.58999 23.6083C9.69471 23.804 9.75929 24.0186 9.77996 24.2395C9.80063 24.4605 9.77696 24.6833 9.71036 24.895C9.64375 25.1067 9.53553 25.303 9.39207 25.4723C9.2486 25.6416 9.07277 25.7805 8.87488 25.8809C8.677 25.9814 8.46105 26.0413 8.2397 26.0572C8.01835 26.073 7.79607 26.0445 7.58588 25.9733C7.37569 25.9022 7.18184 25.7897 7.01569 25.6426C6.84954 25.4955 6.71444 25.3167 6.61832 25.1167C5.09246 22.1061 4.6265 18.669 5.29578 15.3609C5.96507 12.0527 7.73047 9.06702 10.3066 6.88638C12.8827 4.70574 16.119 3.45764 19.4922 3.34384C22.8654 3.23005 26.1784 4.25722 28.8956 6.25929C31.6129 8.26137 33.5755 11.1213 34.4662 14.3768C35.3569 17.6323 35.1236 21.0931 33.8041 24.1996C32.4846 27.3061 30.1559 29.8768 27.1946 31.4961C24.2333 33.1155 20.8124 33.6888 17.485 33.1233L12.5917 36.3867C12.3407 36.5541 12.0489 36.6503 11.7475 36.6649C11.4461 36.6796 11.1464 36.6121 10.8804 36.4698C10.6143 36.3274 10.3919 36.1155 10.2369 35.8567C10.0818 35.5978 9.99995 35.3017 9.99999 35V28.7417C9.99999 28.2996 10.1756 27.8757 10.4881 27.5631C10.8007 27.2506 11.2246 27.075 11.6667 27.075C12.1087 27.075 12.5326 27.2506 12.8452 27.5631C13.1577 27.8757 13.3333 28.2996 13.3333 28.7417V31.885ZM24.4733 20.085C24.681 20.0158 24.9003 19.9883 25.1187 20.0038C25.3371 20.0194 25.5502 20.0779 25.746 20.1758C25.9418 20.2738 26.1163 20.4094 26.2597 20.5748C26.4031 20.7402 26.5125 20.9323 26.5817 21.14C26.6508 21.3477 26.6784 21.567 26.6628 21.7854C26.6472 22.0037 26.5888 22.2169 26.4908 22.4127C26.3928 22.6084 26.2573 22.783 26.0918 22.9264C25.9264 23.0698 25.7344 23.1792 25.5267 23.2483L23.0267 24.0817C22.733 24.1793 22.418 24.1933 22.1169 24.1221C21.8157 24.0509 21.5404 23.8972 21.3217 23.6783L14.655 17.0117C14.4361 16.7929 14.2824 16.5176 14.2112 16.2164C14.14 15.9153 14.154 15.6003 14.2517 15.3067L15.085 12.8067C15.2247 12.3872 15.5253 12.0404 15.9207 11.8425C16.316 11.6447 16.7738 11.612 17.1933 11.7517C17.6128 11.8913 17.9596 12.1919 18.1575 12.5873C18.3553 12.9827 18.388 13.4405 18.2483 13.86L17.74 15.3833L22.95 20.5933L24.4733 20.085Z" fill="black"/>
</svg>
